<svg width="160" height="28" viewBox="0 0 160 28" fill="none" xmlns="http://www.w3.org/2000/svg">
<g clip-path="url(#clip0_1_9)">
<path d="M44.5988 20.8531V23.9306C40.6975 22.0165 36.1155 21.083 31.8183 23.9306H30.4701V21.5723L31.1146 20.8334L40.8658 9.57657H30.6059V6.7997H44.4783V9.29751L35.557 19.6071C38.5748 19.1846 41.5964 19.6012 44.5988 20.8531Z" fill="black"/>
<path d="M59.3242 18.2766C58.4464 20.2556 56.6297 21.5723 54.199 21.5723C51.1908 21.5723 48.9667 19.558 48.5938 16.3704H62.1297C62.1966 15.9557 62.1966 15.5037 62.1966 15.1224C62.1966 10.1288 58.7888 6.45381 53.9944 6.45381C49.2 6.45381 45.6946 10.3705 45.6946 15.3681C45.6946 20.3657 49.3703 24.2765 54.199 24.2765C57.8746 24.2765 61.0148 21.987 62.2961 18.2766H59.3242ZM53.96 9.15404C56.8955 9.15404 58.9245 11.133 59.2267 13.8411H48.6608C49.2 10.9974 51.2635 9.15404 53.96 9.15404Z" fill="black"/>
<path d="M73.0991 6.45382C70.8674 6.45382 69.0468 7.32049 67.9338 8.73939V6.7997H65.1666V23.9287H68.0351V14.358C68.0351 11.2352 69.9609 9.22676 72.7951 9.22676C75.6292 9.22676 77.2835 11.1311 77.2835 14.358V23.9287H80.152V14.1182C80.152 9.3997 77.2165 6.45186 73.1011 6.45186L73.0991 6.45382Z" fill="black"/>
<path d="M83.8276 0V23.9306H86.7V0H83.8276Z" fill="black"/>
<path d="M103.975 6.7997V9.43311C102.626 7.56221 100.433 6.45186 97.8684 6.45186C92.9746 6.45186 89.364 10.3686 89.364 15.3661C89.364 20.3637 92.9746 24.2745 97.8684 24.2745C100.435 24.2745 102.659 23.1661 103.975 21.3306V23.9287H106.742V6.7997H103.975ZM98.0692 21.5036C94.6919 21.5036 92.2307 18.935 92.2307 15.3681C92.2307 11.8012 94.6919 9.22873 98.0692 9.22873C101.446 9.22873 103.908 11.7934 103.908 15.3681C103.908 18.9429 101.443 21.5036 98.0692 21.5036Z" fill="black"/>
<path d="M118.593 6.45382C116.361 6.45382 114.541 7.32049 113.428 8.73939V6.7997H110.66V23.9287H113.529V14.358C113.529 11.2352 115.455 9.22676 118.289 9.22676C121.123 9.22676 122.777 11.1311 122.777 14.358V23.9287H125.646V14.1182C125.646 9.3997 122.71 6.45186 118.595 6.45186L118.593 6.45382Z" fill="black"/>
<path d="M141.741 18.2766C140.863 20.2556 139.042 21.5723 136.61 21.5723C133.609 21.5723 131.381 19.558 131.008 16.3704H144.544C144.611 15.9557 144.611 15.5037 144.611 15.1224C144.611 10.1288 141.205 6.45381 136.413 6.45381C131.62 6.45381 128.109 10.3705 128.109 15.3681C128.109 20.3657 131.785 24.2765 136.611 24.2765C140.291 24.2765 143.431 21.987 144.712 18.2766H141.742H141.741ZM136.376 9.15404C139.312 9.15404 141.337 11.133 141.643 13.8411H131.077C131.616 10.9974 133.674 9.15404 136.376 9.15404Z" fill="black"/>
<path d="M154.768 14.2558L153.385 14.0121C150.989 13.5974 149.74 13.1435 149.74 11.5143C149.74 9.88512 151.188 9.04989 153.114 9.04989C155.341 9.04989 156.657 10.5101 156.862 12.0724H159.763C159.627 9.08527 156.996 6.45186 153.114 6.45186C149.639 6.45186 146.906 8.35617 146.906 11.5143C146.906 14.4268 148.489 15.8496 152.104 16.4726L153.486 16.7163C155.917 17.1349 157.131 17.6183 157.131 19.2494C157.131 20.8806 155.68 21.6785 153.486 21.6785C151.293 21.6785 149.706 20.5661 149.403 18.6245H146.5C146.74 21.8828 149.47 24.2765 153.488 24.2765C157.269 24.2765 160.002 22.3702 160.002 19.2494C160.002 16.4058 158.38 14.8788 154.77 14.2558H154.768Z" fill="black"/>
<path d="M22.5509 5.90159V13.6014L22.5451 13.6073C20.1547 11.9663 17.8368 10.8166 15.5649 10.1563C10.26 8.61557 5.19214 9.74558 0 13.5503V5.75813C3.60103 3.89116 7.29194 2.94785 11.023 2.94785H11.1033C14.8612 2.95964 18.6592 3.93243 22.4419 5.84656C22.4782 5.86621 22.5126 5.88587 22.5509 5.90159Z" fill="black"/>
<path d="M22.5671 13.5935L22.5532 13.612C22.5532 13.612 22.5472 13.6079 22.5452 13.6058L22.5532 13.6017L22.5671 13.5935Z" fill="black"/>
<path opacity="0.7" d="M22.5451 13.6053L16.0316 17.6851C14.385 17.3156 12.7403 17.1289 11.1033 17.1231H11.0249C7.29194 17.1231 3.59912 18.0664 0 19.9333V19.9019L15.5649 10.1543C17.8388 10.8147 20.1566 11.9643 22.5451 13.6053Z" fill="black"/>
<path d="M22.5509 20.0768V27.7844C15.7561 23.115 9.54471 22.4134 3.25678 25.6856C2.18393 26.2437 1.10534 26.9178 0.021016 27.7097L0.00189209 27.7235V19.9333C3.60292 18.0664 7.29383 17.123 11.0249 17.123H11.1052C12.7422 17.1289 14.385 17.3156 16.0334 17.6851C18.2059 18.1685 20.3841 18.9684 22.5528 20.0768H22.5509Z" fill="black"/>
</g>
<defs>
<clipPath id="clip0_1_9">
<rect width="160" height="27.7844" fill="white"/>
</clipPath>
</defs>
</svg>
